<svg xmlns="http://www.w3.org/2000/svg" aria-hidden="true" style="position:absolute;width:0;height:0;overflow:hidden"><defs><symbol id="icon-logo-black" viewBox="0 0 189 32"><path fill="#1e212c" d="M0 16.145C0 7.272 4.8 1.89 12.655 1.89c5.964 0 10.764 3.636 11.636 9.018.145.582-.291 1.018-.873 1.018h-3.782c-.436 0-.727-.291-.873-.727-.727-2.764-3.055-4.509-6.109-4.509-4.218 0-6.836 3.636-6.836 9.455S8.436 25.6 12.8 25.6c3.055 0 5.236-1.6 6.109-4.218.145-.436.436-.727.873-.727h3.782c.582 0 1.018.582.873 1.018-.873 5.236-5.527 8.727-11.636 8.727-8 0-12.8-5.527-12.8-14.255zM35.345 29.673h-4.218c-.436 0-.727-.291-.727-.727V3.782c0-.582.582-1.164 1.164-1.164h10.182c5.964 0 9.6 3.345 9.6 8.582 0 3.055-1.455 5.818-3.927 7.273-.582.291-.727 1.018-.436 1.455l4.509 8.582c.291.436-.145 1.018-.582 1.018h-4.8a.798.798 0 0 1-.727-.436l-4.218-8.727c-.145-.436-.582-.582-1.018-.582h-3.345c-.436 0-.727.291-.727.727v8.582c.145.291-.291.582-.727.582zm.873-14.837c0 .436.291.727.727.727h4.364c2.909 0 4.509-1.6 4.509-4.218s-1.745-4.218-4.509-4.218h-4.218c-.436 0-.727.291-.727.727v6.982h-.145zM74.909 29.673h-16a.994.994 0 0 1-1.018-1.018V3.637a.994.994 0 0 1 1.018-1.018h16a.994.994 0 0 1 1.018 1.018v2.764a.994.994 0 0 1-1.018 1.018H64.291c-.436 0-.727.291-.727.727v4.945c0 .436.291.727.727.727h9.891a.994.994 0 0 1 1.018 1.018v2.473a.994.994 0 0 1-1.018 1.018h-9.891c-.436 0-.727.291-.727.727v5.527c0 .436.291.727.727.727h10.618a.994.994 0 0 1 1.018 1.018v2.764c0 .145-.436.582-1.018.582zM97.454 23.127h-8.291c-.436 0-.727.291-.873.582l-1.6 5.382c-.145.436-.436.582-.873.582h-3.782c-.582 0-1.018-.582-.873-1.164L89.889 3.2c.145-.291.436-.582.873-.582h5.382c.436 0 .727.291.873.582l8.727 25.309c.145.582-.291 1.164-.873 1.164h-4.218c-.436 0-.727-.291-.873-.582l-1.6-5.382c0-.291-.436-.582-.727-.582zm-7.127-4.218h5.964c.291 0 .436-.291.436-.582l-3.2-10.182h-.291l-3.2 10.182c-.145.291 0 .582.291.582zM114.909 28.655V8c0-.436-.291-.727-.727-.727h-6.4c-.582 0-1.164-.436-1.164-1.164V3.636c0-.582.436-1.164 1.164-1.164h19.782c.582 0 1.164.436 1.164 1.164v2.473c0 .582-.436 1.164-1.164 1.164h-6.4c-.436 0-.727.291-.727.727v20.8a.994.994 0 0 1-1.018 1.018h-3.636c-.436-.146-.873-.582-.873-1.164zM150.982 29.673h-16a.994.994 0 0 1-1.018-1.018V3.637a.994.994 0 0 1 1.018-1.018h16A.994.994 0 0 1 152 3.637v2.764a.994.994 0 0 1-1.018 1.018h-10.618c-.436 0-.727.291-.727.727v4.945c0 .436.291.727.727.727h9.891a.994.994 0 0 1 1.018 1.018v2.473a.994.994 0 0 1-1.018 1.018h-9.891c-.436 0-.727.291-.727.727v5.527c0 .436.291.727.727.727h10.618A.994.994 0 0 1 152 26.326v2.764c0 .145-.436.582-1.018.582z" style="fill:var(--color1, #1e212c)"/><path fill="#ff5a30" d="m171.2 14.109-9.018-11.782c-.582-.582-1.309-.873-2.036-.873s-1.455.291-2.036.873a3.098 3.098 0 0 0 0 4.073l7.127 9.6-7.127 9.6a3.098 3.098 0 0 0 0 4.073c.582.582 1.309.873 2.036.873s1.455-.291 2.036-.873l9.018-11.782c1.018-.873 1.018-2.618 0-3.782zM175.044 14.109l9.018-11.782c.582-.582 1.309-.873 2.036-.873s1.455.291 2.036.873a3.098 3.098 0 0 1 0 4.073l-7.127 9.6 7.127 9.6a3.098 3.098 0 0 1 0 4.073c-.582.582-1.309.873-2.036.873s-1.455-.291-2.036-.873l-9.018-11.782c-1.018-.873-1.018-2.618 0-3.782z" style="fill:var(--color2, #ff5a30)"/></symbol><symbol id="icon-logo-white" viewBox="0 0 189 32"><path fill="#fff" d="M0 16.145C0 7.272 4.806 1.89 12.671 1.89c5.971 0 10.778 3.636 11.651 9.018.146.582-.291 1.018-.874 1.018h-3.787c-.437 0-.728-.291-.874-.727-.728-2.764-3.059-4.509-6.117-4.509-4.224 0-6.845 3.636-6.845 9.455S8.447 25.6 12.816 25.6c3.059 0 5.243-1.6 6.117-4.218.146-.436.437-.727.874-.727h3.787c.583 0 1.019.582.874 1.018-.874 5.236-5.534 8.727-11.651 8.727C4.807 30.4.001 24.873.001 16.145zM35.39 29.673h-4.224c-.437 0-.728-.291-.728-.727V3.782c0-.582.583-1.164 1.165-1.164h10.195c5.971 0 9.612 3.345 9.612 8.582 0 3.055-1.456 5.818-3.932 7.273-.583.291-.728 1.018-.437 1.455l4.515 8.582c.291.436-.146 1.018-.583 1.018h-4.806a.8.8 0 0 1-.728-.436l-4.224-8.727c-.146-.436-.583-.582-1.019-.582h-3.35c-.437 0-.728.291-.728.727v8.582c.146.291-.291.582-.728.582zm.874-14.837c0 .436.291.727.728.727h4.369c2.913 0 4.515-1.6 4.515-4.218s-1.748-4.218-4.515-4.218h-4.224c-.437 0-.728.291-.728.727v6.982h-.146zM75.005 29.673H58.984a.994.994 0 0 1-1.019-1.018V3.637a.995.995 0 0 1 1.019-1.018h16.021a.994.994 0 0 1 1.019 1.018v2.764a.995.995 0 0 1-1.019 1.018H64.373c-.437 0-.728.291-.728.727v4.945c0 .436.291.727.728.727h9.904a.994.994 0 0 1 1.019 1.018v2.473a.995.995 0 0 1-1.019 1.018h-9.904c-.437 0-.728.291-.728.727v5.527c0 .436.291.727.728.727h10.632a.994.994 0 0 1 1.019 1.018v2.764c0 .145-.437.582-1.019.582zM97.579 23.127h-8.302c-.437 0-.728.291-.874.582l-1.602 5.382c-.146.436-.437.582-.874.582H82.14c-.583 0-1.019-.582-.874-1.164L90.005 3.2c.146-.291.437-.582.874-.582h5.389c.437 0 .728.291.874.582l8.738 25.309c.146.582-.291 1.164-.874 1.164h-4.224c-.437 0-.728-.291-.874-.582l-1.602-5.382c0-.291-.437-.582-.728-.582zm-7.136-4.218h5.971c.291 0 .437-.291.437-.582L93.647 8.145h-.291l-3.204 10.182c-.146.291 0 .582.291.582zM115.057 28.655V8c0-.436-.291-.727-.728-.727h-6.408c-.583 0-1.165-.436-1.165-1.164V3.636c0-.582.437-1.164 1.165-1.164h19.807c.583 0 1.165.436 1.165 1.164v2.473c0 .582-.437 1.164-1.165 1.164h-6.408c-.437 0-.728.291-.728.727v20.8a.995.995 0 0 1-1.019 1.018h-3.641c-.437-.145-.874-.582-.874-1.164zM151.175 29.673h-16.02a.995.995 0 0 1-1.02-1.018V3.637a.995.995 0 0 1 1.02-1.018h16.02a.995.995 0 0 1 1.02 1.018v2.764a.995.995 0 0 1-1.02 1.018h-10.631c-.437 0-.729.291-.729.727v4.945c0 .436.292.727.729.727h9.903a.995.995 0 0 1 1.02 1.018v2.473a.995.995 0 0 1-1.02 1.018h-9.903c-.437 0-.729.291-.729.727v5.527c0 .436.292.727.729.727h10.631a.995.995 0 0 1 1.02 1.018v2.764c0 .145-.437.582-1.02.582z" style="fill:var(--color3, #fff)"/><path fill="#ff5a30" d="M171.419 14.11 162.39 2.328c-.583-.582-1.311-.873-2.039-.873s-1.456.291-2.039.873a3.093 3.093 0 0 0 0 4.073l7.136 9.6-7.136 9.6a3.093 3.093 0 0 0 0 4.073c.583.582 1.311.873 2.039.873s1.456-.291 2.039-.873l9.029-11.782c1.02-.873 1.02-2.618 0-3.782zM175.268 14.11l9.029-11.782c.583-.582 1.312-.873 2.04-.873s1.456.291 2.039.873a3.093 3.093 0 0 1 0 4.073l-7.136 9.6 7.136 9.6a3.093 3.093 0 0 1 0 4.073c-.583.582-1.311.873-2.039.873s-1.457-.291-2.04-.873l-9.029-11.782c-1.02-.873-1.02-2.618 0-3.782z" style="fill:var(--color2, #ff5a30)"/></symbol><symbol id="icon-happy-home" viewBox="0 0 60 32"><path d="M-8.5-14h78v60h-78v-60z"/></symbol><symbol id="icon-higher-fit" viewBox="0 0 60 32"><path d="M-14.5-18h89v68h-89v-68z"/></symbol><symbol id="icon-indepth" viewBox="0 0 60 32"><path d="M-23-26.5H85v83H-23v-83z"/></symbol><symbol id="icon-sential-consulting" viewBox="0 0 60 32"><path d="M-9-14h78v60H-9v-60z"/></symbol><symbol id="icon-sunset-realty" viewBox="0 0 60 32"><path d="M-12-17.5h87v67h-87v-67z"/></symbol><symbol id="icon-for-sale" viewBox="0 0 60 32"><path d="M-17-20h94v72h-94v-72z"/></symbol><symbol id="icon-chat" viewBox="0 0 32 32"><path fill="#ff5a30" d="M29.231 14.089a10.336 10.336 0 0 1-1.307 3.716c.05.285.076.572.076.861 0 1.004-.291 1.964-.83 2.837-.269.436-.338.946-.365 1.283-.031.387-.02.81.007 1.216.031.456.087.934.151 1.386a27.74 27.74 0 0 0-1.623-.426 11.645 11.645 0 0 0-1.321-.23c-.362-.037-.885-.066-1.353.085a10.837 10.837 0 0 1-3.334.515c-1.411 0-2.706-.25-3.842-.685a17.62 17.62 0 0 1-5.423-.583c2.103 2.432 5.569 3.935 9.265 3.935 1.444 0 2.83-.222 4.107-.629h.012c.033-.001.124-.002.294.015.267.028.611.089 1.008.179.79.178 1.677.441 2.369.661 1.467.466 2.888-.814 2.626-2.303a21.038 21.038 0 0 1-.276-2.1 5.808 5.808 0 0 1-.009-.825 1.48 1.48 0 0 1 .021-.167c.75-1.243 1.182-2.658 1.182-4.164 0-1.698-.527-3.249-1.435-4.577z" style="fill:var(--color2, #ff5a30)"/><path fill="#ff5a30" d="M7.462 7.597c-1.797 1.374-2.796 3.179-2.796 5.069 0 .943.245 1.851.706 2.695.175.322.225.653.243.878.019.245.01.497-.012.732a11.765 11.765 0 0 1-.266 1.531 31.636 31.636 0 0 1-.511 1.887 36.69 36.69 0 0 1 2.204-.731c.59-.172 1.185-.321 1.716-.405.457-.072 1.119-.143 1.69.054a12.96 12.96 0 0 0 4.231.693c2.863 0 5.405-.889 7.204-2.264 1.797-1.374 2.796-3.179 2.796-5.069s-.999-3.695-2.796-5.069c-1.798-1.375-4.341-2.264-7.204-2.264s-5.405.889-7.204 2.264zm-1.62-2.118c2.303-1.761 5.427-2.813 8.824-2.813s6.52 1.051 8.824 2.813c2.305 1.762 3.843 4.291 3.843 7.187s-1.538 5.425-3.843 7.187c-2.303 1.761-5.427 2.813-8.824 2.813a15.64 15.64 0 0 1-5.054-.823c-.002.004-.128-.008-.45.043a11.86 11.86 0 0 0-1.385.331c-1.074.313-2.28.757-3.199 1.114-1.591.619-3.213-.909-2.677-2.537.284-.863.619-1.953.838-2.895.11-.474.181-.873.208-1.168.009-.103.012-.177.011-.228a8.233 8.233 0 0 1-.959-3.837c0-2.896 1.538-5.425 3.843-7.187zM2.954 16.43z" style="fill:var(--color2, #ff5a30)"/></symbol><symbol id="icon-circle-progress-blue" viewBox="0 0 32 32"><path fill="none" stroke="#5a87fc" stroke-width="1.297" d="M31.351 16c0 8.478-6.873 15.351-15.351 15.351S.649 24.478.649 16C.649 7.522 7.522.649 16 .649S31.351 7.522 31.351 16z" opacity=".3" style="stroke:var(--color4, #5a87fc)"/><path fill="#5a87fc" d="M16 30.703c8.12 0 14.703-6.583 14.703-14.703S24.12 1.297 16 1.297V0c8.837 0 16 7.163 16 16s-7.163 16-16 16S0 24.837 0 16c0-2.564.603-4.987 1.675-7.135l1.181.541a14.64 14.64 0 0 0-1.558 6.595c0 8.12 6.583 14.703 14.703 14.703z" style="fill:var(--color4, #5a87fc)"/></symbol><symbol id="icon-circle-progress-green" viewBox="0 0 32 32"><path fill="none" stroke="#03cea4" stroke-width="1.297" d="M31.351 16c0 8.478-6.873 15.351-15.351 15.351S.649 24.478.649 16C.649 7.522 7.522.649 16 .649S31.351 7.522 31.351 16z" style="stroke:var(--color5, #03cea4)"/></symbol><symbol id="icon-circle-progress-orange" viewBox="0 0 32 32"><path fill="none" stroke="#f89828" stroke-width="1.297" d="M31.351 16c0 8.478-6.873 15.351-15.351 15.351S.649 24.478.649 16C.649 7.522 7.522.649 16 .649S31.351 7.522 31.351 16z" opacity=".3" style="stroke:var(--color6, #f89828)"/><path fill="#f89828" d="M16 30.703c8.12 0 14.703-6.583 14.703-14.703S24.12 1.297 16 1.297V0c8.837 0 16 7.163 16 16s-7.163 16-16 16S0 24.837 0 16c0-4.898 2.201-9.281 5.667-12.216l.82 1.006A14.669 14.669 0 0 0 1.298 16c0 8.12 6.583 14.703 14.703 14.703z" style="fill:var(--color6, #f89828)"/></symbol><symbol id="icon-circle-progress-pink" viewBox="0 0 32 32"><path fill="none" stroke="#f52f6e" stroke-width="1.297" d="M31.351 16c0 8.478-6.873 15.351-15.351 15.351S.649 24.478.649 16C.649 7.522 7.522.649 16 .649S31.351 7.522 31.351 16z" opacity=".3" style="stroke:var(--color7, #f52f6e)"/><path fill="#f52f6e" d="M16 30.703c8.12 0 14.703-6.583 14.703-14.703S24.12 1.297 16 1.297V0c8.837 0 16 7.163 16 16s-7.163 16-16 16S0 24.837 0 16h1.297c0 8.12 6.583 14.703 14.703 14.703z" style="fill:var(--color7, #f52f6e)"/></symbol><symbol id="icon-comments" viewBox="0 0 37 32"><path fill="#787a80" d="M33.406 14.961a11.795 11.795 0 0 1-1.494 4.247c.057.325.086.654.086.985 0 1.147-.332 2.245-.948 3.243-.307.498-.387 1.081-.417 1.467-.035.442-.023.925.008 1.39.035.521.099 1.068.173 1.584a32.298 32.298 0 0 0-1.855-.486 13.35 13.35 0 0 0-1.51-.263c-.414-.043-1.011-.076-1.546.097a12.395 12.395 0 0 1-3.811.589c-1.612 0-3.093-.286-4.39-.783-.312.014-.627.021-.943.021-1.836 0-3.602-.241-5.255-.688 2.403 2.779 6.364 4.497 10.589 4.497 1.65 0 3.234-.253 4.694-.719h.014c.038-.001.142-.003.336.017.306.032.699.102 1.152.204a34.8 34.8 0 0 1 2.707.755c1.676.532 3.301-.931 3.001-2.632a23.886 23.886 0 0 1-.315-2.4 6.928 6.928 0 0 1-.011-.943c.008-.097.018-.158.024-.19.857-1.42 1.351-3.037 1.351-4.759 0-1.941-.603-3.713-1.64-5.231z" style="fill:var(--color8, #787a80)"/><path fill="#787a80" d="M8.528 7.542c-2.054 1.571-3.196 3.633-3.196 5.793 0 1.077.28 2.115.807 3.08.2.368.257.747.278 1.003.022.28.011.567-.013.836a13.502 13.502 0 0 1-.304 1.75 35.173 35.173 0 0 1-.584 2.156 42.211 42.211 0 0 1 2.519-.836 16.367 16.367 0 0 1 1.961-.463c.522-.083 1.279-.164 1.931.062 1.463.506 3.1.792 4.835.792 3.272 0 6.178-1.016 8.233-2.588 2.054-1.571 3.196-3.633 3.196-5.793s-1.142-4.223-3.196-5.793c-2.055-1.572-4.961-2.588-8.233-2.588s-6.178 1.016-8.233 2.588zM6.677 5.121c2.632-2.013 6.203-3.214 10.084-3.214s7.452 1.201 10.084 3.214c2.634 2.014 4.392 4.905 4.392 8.214s-1.758 6.2-4.392 8.214c-2.632 2.013-6.203 3.214-10.084 3.214a17.87 17.87 0 0 1-5.776-.941c-.002.005-.146-.009-.514.049-.425.067-.967.199-1.583.378-1.227.358-2.606.865-3.656 1.273-1.819.708-3.672-1.039-3.059-2.9.325-.986.708-2.233.958-3.309.126-.542.207-.998.238-1.335.011-.117.013-.203.013-.26a9.413 9.413 0 0 1-1.096-4.385c0-3.31 1.758-6.2 4.392-8.214z" style="fill:var(--color8, #787a80)"/></symbol><symbol id="icon-construction" viewBox="0 0 33 32"><path fill="" d="M31.37 16.937c.518 0 .937-.42.937-.937V9a.937.937 0 0 0-.937-.937H17.245V2a.938.938 0 0 0-.937-.938h-10A.938.938 0 0 0 5.37 2v6.063H1.245A.938.938 0 0 0 .307 9v7c0 .518.42.937.938.937H5.37v5.125H1.245a.938.938 0 0 0-.938.937v7c0 .518.42.937.938.937H31.37c.518 0 .937-.42.937-.937v-7a.937.937 0 0 0-.937-.937h-4.125v-5.125h4.125zm-.937-1.874h-8.188V9.938h8.188v5.125zm-10.063 0h-8.125V9.938h8.125v5.125zM7.245 2.938h8.125v5.125H7.245V2.938zM2.183 15.063V9.938h8.188v5.125H2.183zm5.062 1.874h8.125v5.125H7.245v-5.125zm-5.062 7h8.188v5.125H2.183v-5.125zm10.062 0h8.125v5.125h-8.125v-5.125zm18.188 0v5.125h-8.188v-5.125h8.188zm-5.063-1.874h-8.125v-5.125h8.125v5.125z" style=""/></symbol><symbol id="icon-facebook" viewBox="0 0 17 32"><path fill="#fff" d="M16.819.007 12.779 0C8.241 0 5.308 3.091 5.308 7.875v3.631H1.246a.644.644 0 0 0-.635.653v5.261c0 .36.285.652.635.652h4.062v13.275c0 .361.284.652.635.652h5.299a.644.644 0 0 0 .635-.652V18.072h4.749a.644.644 0 0 0 .635-.652l.002-5.261c0-.173-.067-.339-.186-.461s-.281-.191-.45-.191h-4.751V8.429c0-1.479.343-2.23 2.219-2.23l2.721-.001a.644.644 0 0 0 .635-.652V.661a.643.643 0 0 0-.634-.652z" style="fill:var(--color3, #fff)"/></symbol><symbol id="icon-hand" viewBox="0 0 32 32"><path fill="#ff5a30" d="M4.667 29.333H1a1 1 0 0 1-1-1V17a1 1 0 0 1 1-1c4.675 0 6.851 1.623 6.94 1.692a1 1 0 0 1 .359 1.056l-2.667 9.848a.998.998 0 0 1-.965.737zm-2.667-2h1.901l2.264-8.361c-.697-.329-2.06-.82-4.165-.943v9.304z" style="fill:var(--color2, #ff5a30)"/><path fill="#ff5a30" d="M17.333 32c-3.012 0-8.564-2.305-12.692-4.241a1 1 0 0 1 .849-1.812C10.983 28.524 15.301 30 17.333 30c2.704 0 8.843-2.921 12.06-4.607-.371-.212-.923-.393-1.727-.393-1.173 0-2.62.48-4.019.944-.455.151-.908.301-1.357.439-.989.305-2.157.617-3.292.617-2.809 0-6.519-1.336-6.675-1.393a1 1 0 1 1 .682-1.88C13.04 23.74 16.541 25 18.997 25c.875 0 1.905-.283 2.705-.529.435-.133.873-.279 1.312-.424C24.563 23.532 26.165 23 27.662 23c3.305 0 4.224 2.201 4.261 2.296a1 1 0 0 1-.445 1.247c-.4.223-9.937 5.457-14.147 5.457z" style="fill:var(--color2, #ff5a30)"/><path fill="#ff5a30" d="M22 26.453a1 1 0 0 1-1-1v-.6c0-.788-.561-1.476-1.333-1.633L6.826 20.593c-.54-.111-.889-.639-.779-1.18s.64-.887 1.18-.779l12.841 2.627A3.68 3.68 0 0 1 23 24.854v.6a1 1 0 0 1-1 .999zM24 18.666c-.133 0-.265-.027-.391-.08C23.298 18.454 16 15.277 16 8.738V3.381a1 1 0 0 1 .679-.947l7-2.381a.984.984 0 0 1 .643 0l7 2.381a.997.997 0 0 1 .679.947v5.357c0 6.539-7.299 9.717-7.609 9.849a1.015 1.015 0 0 1-.391.079zM18 4.097v4.641c0 4.464 4.607 7.121 5.999 7.821C25.388 15.855 30 13.184 30 8.738V4.097l-6-2.041-6 2.041z" style="fill:var(--color2, #ff5a30)"/><path fill="#ff5a30" d="M23.666 12.667a1 1 0 0 1-.707-.293l-2.667-2.667a1 1 0 1 1 1.415-1.415l1.852 1.852 3.307-4.411a1 1 0 1 1 1.599 1.2l-4 5.333a.994.994 0 0 1-.729.397c-.023.003-.045.003-.069.003z" style="fill:var(--color2, #ff5a30)"/></symbol><symbol id="icon-heart" viewBox="0 0 37 32"><path fill="#ff5a30" d="M18.284 28.049C11.276 24.057 7.367 20.09 5.477 16.648c-1.934-3.523-1.766-6.49-.692-8.596 2.206-4.329 8.481-5.713 12.304-.878l1.195 1.512 1.195-1.512c3.824-4.835 10.098-3.451 12.305.878 1.073 2.106 1.242 5.073-.693 8.596-1.89 3.442-5.799 7.409-12.807 11.401zm0-24.078C12.906-1.139 4.973.973 2.07 6.668.477 9.794.455 13.833 2.806 18.115c2.33 4.244 6.976 8.723 14.741 13.015l.737.407.737-.407c7.765-4.292 12.411-8.771 14.742-13.015 2.351-4.282 2.33-8.322.736-11.447C31.596.973 23.662-1.139 18.284 3.971z" style="fill:var(--color2, #ff5a30)"/></symbol><symbol id="icon-left-arrow" viewBox="0 0 32 32"><path fill="#424551" d="M12.276 22.943a1.333 1.333 0 0 1-1.886 0l-6-6a1.333 1.333 0 0 1 0-1.886l6-6a1.333 1.333 0 1 1 1.886 1.886l-3.724 3.724h18.114a1.333 1.333 0 0 1 0 2.666H8.552l3.724 3.724a1.333 1.333 0 0 1 0 1.886z" style="fill:var(--color9, #424551)"/></symbol><symbol id="icon-like" viewBox="0 0 32 32"><path fill="#ff5a30" d="M29.344 19.813a2.804 2.804 0 0 0 .718-1.875 2.815 2.815 0 0 0-2.813-2.812H21.79c.541-1.641.771-3.817.771-4.751v-.937a3.755 3.755 0 0 0-3.75-3.75h-.938a.936.936 0 0 0-.909.71l-.511 2.043c-.716 2.861-2.987 6.018-5.339 6.592a2.817 2.817 0 0 0-2.616-1.782H2.873a.938.938 0 0 0-.938.937v16.875c0 .517.42.937.938.937h5.625a2.817 2.817 0 0 0 2.539-1.603l3.221 1.074c1.053.351 2.151.529 3.261.529h7.854a2.815 2.815 0 0 0 2.615-3.849 2.818 2.818 0 0 0 2.073-2.714c0-.719-.272-1.377-.718-1.875a2.804 2.804 0 0 0 0-3.75zM9.437 29.187a.94.94 0 0 1-.937.938H3.812v-15H8.5c.517 0 .937.421.937.938v13.125zm15.938-8.437h1.875a.938.938 0 0 1 0 1.875h-1.875a.939.939 0 0 0 0 1.875h1.875a.938.938 0 0 1 0 1.875h-1.875a.939.939 0 0 0 0 1.875c.517 0 .938.421.938.937s-.421.938-.938.938h-7.854a8.434 8.434 0 0 1-2.669-.433l-3.54-1.18V16.911c1.471-.279 2.91-1.211 4.209-2.735 1.269-1.489 2.298-3.463 2.752-5.281l.333-1.333h.206c1.034 0 1.875.841 1.875 1.875v.937c0 1.259-.394 3.673-.897 4.751h-1.915a.938.938 0 0 0 0 1.875h9.375a.938.938 0 0 1 0 1.875h-1.875a.939.939 0 0 0 0 1.875z" style="fill:var(--color2, #ff5a30)"/><path fill="#ff5a30" d="M6.625 28.25a.938.938 0 1 0 0-1.876.938.938 0 0 0 0 1.876zM19.75 0a.937.937 0 0 0-.937.938v1.938a.938.938 0 1 0 1.874 0V.938A.938.938 0 0 0 19.75 0zM15.773 4.134l-1.326-1.326a.938.938 0 0 0-1.326 1.326l1.326 1.326a.938.938 0 0 0 1.326-1.326zM26.379 2.808a.938.938 0 0 0-1.326 0l-1.326 1.326a.938.938 0 0 0 1.326 1.326l1.326-1.326a.938.938 0 0 0 0-1.326z" style="fill:var(--color2, #ff5a30)"/></symbol><symbol id="icon-messanger" viewBox="0 0 32 32"><path fill="#fff" d="M16 0C7.164 0 0 6.632 0 14.814c0 4.662 2.326 8.82 5.962 11.536V32l5.448-2.99c1.454.402 2.994.62 4.59.62 8.836 0 16-6.632 16-14.814S24.836 0 16 0zm1.59 19.95-4.074-4.346-7.95 4.346 8.746-9.284 4.174 4.346 7.85-4.346-8.746 9.284z" style="fill:var(--color3, #fff)"/></symbol><symbol id="icon-painting" viewBox="0 0 33 32"><path fill="" d="M26.683 2.813A2.816 2.816 0 0 0 23.87 0H5.12a2.816 2.816 0 0 0-2.813 2.813v5.625a2.816 2.816 0 0 0 2.813 2.813h18.75a2.816 2.816 0 0 0 2.813-2.813v-.937h.937a.94.94 0 0 1 .938.937v3.75a.938.938 0 0 1-.938.937H16.37a2.816 2.816 0 0 0-2.813 2.813v2.813h-.938a.937.937 0 0 0-.937.937v3.699l-.938 3.811a3.865 3.865 0 0 0 3.75 4.803 3.865 3.865 0 0 0 3.751-4.8l-.938-3.814v-3.699a.937.937 0 0 0-.937-.937h-.938v-2.813c0-.517.421-.937.938-.937h11.25a2.816 2.816 0 0 0 2.813-2.813v-3.75a2.815 2.815 0 0 0-2.813-2.812h-.937V2.813zm-11.25 17.812v1.938h-1.875v-1.938h1.875zm-.938 9.5a1.99 1.99 0 0 1-1.93-2.477l.79-3.211h2.28l.791 3.214a1.99 1.99 0 0 1-1.931 2.473zM5.12 1.875h18.75c.517 0 .937.421.937.938v.938h-2.813c-.911 0-2.076.341-3.425.736-1.822.534-3.887 1.139-5.95 1.139-2.01 0-3.428-.587-4.678-1.105-.956-.396-1.859-.77-2.822-.77h-.938v-.938a.94.94 0 0 1 .938-.938zm19.688 6.562a.94.94 0 0 1-.937.938H5.121a.94.94 0 0 1-.938-.938V5.625h.938c.59 0 1.259.277 2.104.627 1.342.556 3.012 1.248 5.396 1.248 2.331 0 4.63-.673 6.477-1.214 1.16-.34 2.256-.661 2.898-.661h2.813v2.812z" style=""/></symbol><symbol id="icon-pantone" viewBox="0 0 33 32"><path fill="" d="M6.933 22.563c-1.551 0-2.813 1.262-2.813 2.813s1.262 2.813 2.813 2.813 2.813-1.262 2.813-2.813a2.816 2.816 0 0 0-2.813-2.813zm0 3.75a.938.938 0 0 1 0-1.875.938.938 0 0 1 0 1.875z" style=""/><path fill="" d="M30.616 19.046c.64-.865.757-2.072.176-3.08l-3.748-6.554c-.648-1.123-2.016-1.635-3.235-1.309a2.817 2.817 0 0 0-1.339-3.048l-6.495-3.75a2.814 2.814 0 0 0-2.89.047A2.812 2.812 0 0 0 10.683.001H3.12A2.816 2.816 0 0 0 .307 2.814v26.375a2.816 2.816 0 0 0 2.813 2.813h26.375a2.816 2.816 0 0 0 2.813-2.813v-7.563a2.816 2.816 0 0 0-1.692-2.579zM11.62 29.188a.938.938 0 0 1-.937.937H3.12a.94.94 0 0 1-.938-.937v-8.5h9.438v8.5zm0-10.375H2.182V11.25h9.438v7.563zm0-9.438H2.182V2.812a.94.94 0 0 1 .938-.938h7.563c.517 0 .937.421.937.938v6.563zm1.875-5.652.261-.452a.938.938 0 0 1 1.281-.343l6.495 3.75a.94.94 0 0 1 .343 1.282l-1.083 1.883a.919.919 0 0 0-.072.125l-7.224 12.556V3.722zm0 22.562 8.764-15.234 1.812-1.046c.459-.265 1.089-.104 1.347.341l3.748 6.554a.941.941 0 0 1-.346 1.287l-15.325 8.872v-.774zm16.938 2.903a.938.938 0 0 1-.937.937H13.335c.1-.282.156-.584.16-.899l14.749-8.539h1.252c.517 0 .937.421.937.937v7.563z" style=""/></symbol><symbol id="icon-phone" viewBox="0 0 32 32"><path fill="#ff5a30" d="M11.333 3.896a2 2 0 0 0-2 2v20.208a2 2 0 0 0 2 2h9.333a2 2 0 0 0 2-2V5.896a2 2 0 0 0-2-2h-.111l-.325.779c-.207.497-.692.82-1.231.82h-6a1.335 1.335 0 0 1-1.231-.82l-.325-.779h-.111zm-4.667 2a4.667 4.667 0 0 1 4.667-4.667h9.333a4.667 4.667 0 0 1 4.667 4.667v20.208a4.667 4.667 0 0 1-4.667 4.667h-9.333a4.667 4.667 0 0 1-4.667-4.667V5.896z" style="fill:var(--color2, #ff5a30)"/></symbol><symbol id="icon-plan" viewBox="0 0 33 32"><path fill="" d="M28.558 1.938a3.754 3.754 0 0 0-3.247 1.875H1.245a.938.938 0 0 0-.938.938v24.375c0 .518.42.938.938.938h27.312a3.754 3.754 0 0 0 3.75-3.75V5.689a3.754 3.754 0 0 0-3.75-3.75zm0 26.25H2.183v-22.5h22.625v20.625a.937.937 0 1 0 1.875 0c0-1.034.841-1.875 1.875-1.875s1.875.841 1.875 1.875a1.877 1.877 0 0 1-1.875 1.875zm1.875-5.122c-.552-.32-1.192-.503-1.875-.503s-1.323.183-1.875.503V5.688c0-1.034.841-1.875 1.875-1.875s1.875.841 1.875 1.875v17.378z" style=""/><path fill="" d="M21.933 7.563H5.058a.938.938 0 0 0-.938.937v16.875c0 .518.42.937.938.937h9.375a.937.937 0 0 0 .938-.938v-1.875c0-1.222.784-2.265 1.875-2.652v4.527c0 .518.42.937.938.937h3.75c.518 0 .938-.42.938-.937V8.499a.937.937 0 0 0-.938-.937zm-.938 16.874H19.12V19.75a.938.938 0 0 0-.937-.938 4.693 4.693 0 0 0-4.688 4.688v.937h-7.5v-5.625h3.75v2.813a.938.938 0 0 0 1.875 0v-3.75a.938.938 0 0 0-.937-.938H5.995v-7.5h5.625v3.75H8.807a.937.937 0 1 0 0 1.875h7.5a.937.937 0 0 0 0-1.875h-2.813v-3.75h7.5v15z" style=""/></symbol><symbol id="icon-play-video" viewBox="0 0 32 32"><path fill="#ff5a30" d="M32 16c0 8.837-7.163 16-16 16S0 24.837 0 16 7.163 0 16 0s16 7.163 16 16z" style="fill:var(--color2, #ff5a30)"/><path fill="#fff" d="M20.6 15.654a.4.4 0 0 1 0 .693L14 20.158a.4.4 0 0 1-.6-.346v-7.621a.4.4 0 0 1 .6-.346l6.6 3.811z" style="fill:var(--color3, #fff)"/></symbol><symbol id="icon-right-arrow" viewBox="0 0 32 32"><path fill="" d="M19.724 9.057a1.333 1.333 0 0 1 1.886 0l6 6a1.333 1.333 0 0 1 0 1.886l-6 6a1.333 1.333 0 1 1-1.886-1.886l3.724-3.724H5.334a1.333 1.333 0 0 1 0-2.666h18.114l-3.724-3.724a1.333 1.333 0 0 1 0-1.886z" style=""/></symbol><symbol id="icon-slippers" viewBox="0 0 32 32"><path fill="#ff5a30" d="M25.369 1.393c-4.113-.432-7.811 2.562-8.243 6.675l-.751 7.148a.937.937 0 0 0 .834 1.03l.311.033-.784 7.459c-.36 3.427 2.135 6.509 5.562 6.869s6.509-2.135 6.869-5.562l.784-7.459.311.033a.937.937 0 0 0 1.03-.834l.751-7.148c.432-4.113-2.562-7.811-6.675-8.243zm-.196 1.865a5.631 5.631 0 0 1 5.006 6.182l-.261 2.486L18.73 10.75l.261-2.486a5.631 5.631 0 0 1 6.182-5.006zM18.338 14.48l.196-1.865 11.188 1.176-.196 1.865-11.188-1.176zm8.965 10.369c-.252 2.399-2.409 4.146-4.808 3.894s-4.146-2.409-3.894-4.808l.784-7.459 8.702.915-.784 7.459z" style="fill:var(--color2, #ff5a30)"/><path fill="#ff5a30" d="m21.447 26.748 2.486.261a.937.937 0 1 0 .196-1.864l-2.486-.261a.937.937 0 1 0-.196 1.864zM6.631 1.393c-4.113.432-7.107 4.13-6.675 8.243l.751 7.148a.937.937 0 0 0 1.03.834l.311-.033.784 7.459c.36 3.427 3.442 5.923 6.869 5.562s5.923-3.442 5.562-6.869l-.784-7.459.311-.033a.937.937 0 0 0 .834-1.03l-.751-7.148C14.441 3.954 10.743.96 6.63 1.392zM2.475 15.656l-.196-1.865 11.188-1.176.196 1.865-11.188 1.176zM13.4 23.934c.252 2.399-1.495 4.556-3.894 4.808s-4.556-1.495-4.808-3.894l-.784-7.459 8.702-.915.784 7.459zm-.129-13.184L2.083 11.926 1.822 9.44c-.324-3.085 1.922-5.858 5.006-6.182s5.858 1.922 6.182 5.006l.261 2.486z" style="fill:var(--color2, #ff5a30)"/><path fill="#ff5a30" d="m8.067 27.009 2.486-.261a.937.937 0 1 0-.196-1.864l-2.486.261a.936.936 0 1 0 .196 1.864z" style="fill:var(--color2, #ff5a30)"/></symbol><symbol id="icon-to-top" viewBox="0 0 57 32"><path fill="#fff" d="M1.041 30.959a3.554 3.554 0 0 1 0-5.028L25.93 1.042a3.554 3.554 0 0 1 5.028 0l24.889 24.889a3.556 3.556 0 0 1-5.028 5.028L28.444 8.584 6.069 30.959a3.556 3.556 0 0 1-5.028 0z" style="fill:var(--color3, #fff)"/></symbol><symbol id="icon-twitter" viewBox="0 0 39 32"><path fill="#fff" d="M38.222 4.929a15.838 15.838 0 0 1-4.398 1.155c1.582-.907 2.793-2.345 3.366-4.054a15.839 15.839 0 0 1-4.867 1.78c-1.397-1.427-3.385-2.316-5.59-2.316-4.229 0-7.659 3.284-7.659 7.331 0 .574.068 1.135.198 1.671C12.908 10.19 7.265 7.27 3.488 2.834A7.045 7.045 0 0 0 2.452 6.52c0 2.544 1.353 4.789 3.406 6.103a7.922 7.922 0 0 1-3.469-.92v.092c0 3.552 2.641 6.516 6.143 7.191a8.097 8.097 0 0 1-2.018.257c-.495 0-.973-.047-1.442-.136.975 2.915 3.803 5.035 7.153 5.093-2.62 1.966-5.923 3.134-9.511 3.134-.618 0-1.227-.036-1.827-.101a22.352 22.352 0 0 0 11.739 3.299c14.088 0 21.789-11.174 21.789-20.864l-.026-.949A14.97 14.97 0 0 0 38.22 4.93z" style="fill:var(--color3, #fff)"/></symbol><symbol id="icon-volum-off" viewBox="0 0 32 32"><path fill="#fff" d="M19.2 24.932c.933.667 2.133.133 2.133-1.067v-6L16.4 22.798l2.8 2.133zM27.6 7.066a1.29 1.29 0 0 0-1.867 0l-4.4 4.4V8.133C21.333 7.066 20 6.4 19.2 7.066l-3.733 3.067c-.533.267-1.067.533-1.733.533h-3.067A2.675 2.675 0 0 0 8 13.333v5.333c0 1.467 1.2 2.667 2.667 2.667h.8l-4.4 4.4c-.533.533-.533 1.333 0 1.867s1.333.533 1.867 0L27.601 8.933a1.29 1.29 0 0 0 0-1.867z" style="fill:var(--color3, #fff)"/></symbol><symbol id="icon-whatsapp" viewBox="0 0 32 32"><path fill="#fff" d="M32 15.588c0 8.609-7.032 15.588-15.709 15.588-2.755 0-5.342-.704-7.594-1.94L0 32l2.836-8.363a15.43 15.43 0 0 1-2.254-8.049C.582 6.979 7.615 0 16.292 0s15.709 6.979 15.709 15.588zM16.291 2.482c-7.283 0-13.207 5.879-13.207 13.105 0 2.868.935 5.523 2.516 7.684l-1.65 4.867 5.076-1.613a13.199 13.199 0 0 0 7.266 2.168c7.282 0 13.208-5.878 13.208-13.105S23.575 2.482 16.292 2.482zm7.933 16.696c-.097-.159-.353-.255-.738-.446s-2.279-1.116-2.631-1.243c-.353-.127-.611-.191-.867.191s-.994 1.243-1.22 1.498c-.225.256-.449.288-.835.096s-1.625-.595-3.096-1.896c-1.145-1.013-1.918-2.263-2.142-2.646s-.023-.589.169-.779c.174-.171.385-.446.578-.669s.257-.382.385-.638c.129-.255.065-.478-.032-.669s-.867-2.071-1.188-2.836c-.321-.764-.641-.637-.866-.637s-.481-.032-.738-.032-.674.096-1.027.478c-.353.383-1.347 1.307-1.347 3.187s1.379 3.697 1.572 3.951c.192.255 2.663 4.238 6.578 5.768s3.915 1.019 4.621.955c.705-.064 2.278-.924 2.6-1.816.32-.893.32-1.658.224-1.817z" style="fill:var(--color3, #fff)"/></symbol><symbol id="icon-youtube" viewBox="0 0 43 32"><path fill="#fff" d="M38.027 1.98c-3.339-.914-16.694-.914-16.694-.914s-13.355 0-16.694.879C2.847 2.437 1.37 3.913.879 5.741 0 9.08 0 16.003 0 16.003s0 6.959.879 10.262a5.347 5.347 0 0 0 3.761 3.761c3.374.914 16.694.914 16.694.914s13.355 0 16.694-.879a5.347 5.347 0 0 0 3.761-3.76c.879-3.339.879-10.262.879-10.262s.035-6.959-.879-10.297a5.346 5.346 0 0 0-3.76-3.761zm-9.841 14.023L17.08 22.399V9.606l11.106 6.396z" style="fill:var(--color3, #fff)"/></symbol></defs></svg>